{"title":"Game.of.Thrones.S06E08.HDTV.x264-KILLERS[mp4remuxer].mp4","uid":14899099,"size":377349407,"categoryP":"video","categoryS":"tv_shows","magnet":"?xt=urn:btih:2d5887dbdd9472273612803096e1047b1493dc29&amp;dn=Game.of.Thrones.S06E08.HDTV.x264-KILLERS%5Bmp4remuxer%5D.mp4&amp;tr=udp%3A%2F%2Ftracker.leechers-paradise.org%3A6969&amp;tr=udp%3A%2F%2Fzer0day.ch%3A1337&amp;tr=udp%3A%2F%2Fopen.demonii.com%3A1337&amp;tr=udp%3A%2F%2Ftracker.coppersurfer.tk%3A6969&amp;tr=udp%3A%2F%2Fexodus.desync.com%3A6969","seeders":3,"leechers":0,"uploader":"k3nd00d","files":1,"time":1465800288,"description":"Well, now that KILLERS finally released. Here is theirs. You have many choices this week. :)\r\n\r\nMKV to MP4 remux\r\n\r\n\r\nFormat : MPEG-4\r\nFormat profile : Base Media\r\nCodec ID : isom (isom/iso2/avc1/mp41)\r\nFile size : 360 MiB\r\nDuration : 58mn 16s\r\nOverall bit rate : 863 Kbps\r\nWriting application : Lavf56.32.100\r\n\r\nVideo\r\nID : 1\r\nFormat : AVC\r\nFormat/Info : Advanced Video Codec\r\nFormat profile :   \r\nFormat settings, CABAC : Yes\r\nFormat settings, ReFrames : 5 frames\r\nCodec ID : avc1\r\nCodec ID/Info : Advanced Video Coding\r\nDuration : 58mn 16s\r\nBit rate : 737 Kbps\r\nWidth : 720 pixels\r\nHeight : 402 pixels\r\nDisplay aspect ratio : 16:9\r\nFrame rate mode : Variable\r\nFrame rate : 23.976 (24000/1001) fps\r\nMinimum frame rate : 23.564 fps\r\nMaximum frame rate : 24.390 fps\r\nColor space : YUV\r\nChroma subsampling : 4:2:0\r\nBit depth : 8 bits\r\nScan type : Progressive\r\nBits/(Pixel*Frame) : 0.106\r\nStream size : 307 MiB (85%)\r\nWriting library : x264 core 148 r2692 64f4e24\r\nEncoding settings : cabac=1 / ref=5 / deblock=1:0:0 / analyse=0x3:0x113 / me=umh / subme=8 / psy=1 / psy_rd=1.00:0.00 / mixed_ref=1 / me_range=16 / chroma_me=1 / trellis=1 / 8x8dct=1 / cqm=0 / deadzone=21,11 / fast_pskip=1 / chroma_qp_offset=-2 / threads=13 / lookahead_threads=2 / sliced_threads=0 / nr=0 / decimate=1 / interlaced=0 / bluray_compat=0 / constrained_intra=0 / bframes=3 / b_pyramid=2 / b_adapt=2 / b_bias=0 / direct=3 / weightb=1 / open_gop=0 / weightp=2 / keyint=250 / keyint_min=23 / scenecut=40 / intra_refresh=0 / rc_lookahead=50 / rc=crf / mbtree=1 / crf=19.0 / qcomp=0.60 / qpmin=0 / qpmax=69 / qpstep=4 / ip_ratio=1.40 / aq=1:1.00\r\nColor range : Limited\r\nMatrix coefficients : BT.709\r\n\r\nAudio\r\nID : 2\r\nFormat : AAC\r\nFormat/Info : Advanced Audio Codec\r\nFormat profile : LC\r\nCodec ID : 40\r\nDuration : 58mn 16s\r\nBit rate mode : Constant\r\nBit rate : 119 Kbps\r\nChannel(s) : 2 channels\r\nChannel positions : Front: L R\r\nSampling rate : 48.0 KHz\r\nFrame rate : 46.875 fps (1024 spf)\r\nCompression mode : Lossy\r\nStream size : 49.5 MiB (14%)\r\nDefault : Yes\r\nAlternate group : 1","torrent":{"xt":"urn:btih:2d5887dbdd9472273612803096e1047b1493dc29","amp;dn":"Game.of.Thrones.S06E08.HDTV.x264-KILLERS%5Bmp4remuxer%5D.mp4","amp;tr":["udp%3A%2F%2Ftracker.leechers-paradise.org%3A6969","udp%3A%2F%2Fzer0day.ch%3A1337","udp%3A%2F%2Fopen.demonii.com%3A1337","udp%3A%2F%2Ftracker.coppersurfer.tk%3A6969","udp%3A%2F%2Fexodus.desync.com%3A6969"],"infoHash":"2d5887dbdd9472273612803096e1047b1493dc29","infoHashBuffer":{"type":"Buffer","data":[45,88,135,219,221,148,114,39,54,18,128,48,150,225,4,123,20,147,220,41]},"announce":[],"urlList":[]}}